<svg
  width="32"
  height="32"
  viewBox="0 0 32 32"
  xmlns="http://www.w3.org/2000/svg"
>
  <defs>
    <linearGradient id="emerald-gradient" x1="0%" y1="0%" x2="100%" y2="100%">
      <stop offset="0%" style="stop-color: #10b981; stop-opacity: 1" />
      <stop offset="100%" style="stop-color: #0d9488; stop-opacity: 1" />
    </linearGradient>
  </defs>
  <circle cx="16" cy="16" r="16" fill="url(#emerald-gradient)" />
  <g
    transform="translate(16, 16)"
    fill="none"
    stroke="white"
    stroke-width="1.5"
    stroke-linecap="round"
    stroke-linejoin="round"
  >
    <g transform="translate(-9, -9) scale(0.75)">
      <path d="M2 3h6a4 4 0 0 1 4 4v14a3 3 0 0 0-3-3H2z" />
      <path d="M22 3h-6a4 4 0 0 0-4 4v14a3 3 0 0 1 3-3h7z" />
      <path d="M6 8h2" />
      <path d="M6 12h2" />
      <path d="M16 8h2" />
      <path d="M16 12h2" />
    </g>
  </g>
</svg>
